<?xml version="1.0" encoding="UTF-8" standalone="no"?>
<svg
   version="1.2"
   baseProfile="tiny-ps"
   id="svg1"
   width="1333"
   height="1333"
   viewBox="0 0 1333 1333"
   xmlns="http://www.w3.org/2000/svg"
   xmlns:svg="http://www.w3.org/2000/svg">
  <title>Corgi Studios</title>
  <defs
     id="defs1" />
  <g
     id="g1">
    <g
       id="g16">
      <path
         style="fill:#fcfdfd"
         d="M 0.18552758,1016.3333 C 0.29013798,837.59167 0.85110293,705.43934 1.4717127,713.33329 12.435348,852.7871 61.102635,976.32048 147.95892,1085.1654 c 18.93664,23.7307 61.06613,67.2462 84.5267,87.3076 109.25789,93.4275 244.68488,149.0944 387.7773,159.3946 8.37905,0.6032 -125.97532,1.1694 -302.59627,1.2752 L 0,1333.3333 Z M 713.07033,1331.8676 c 142.35056,-10.2468 278.80506,-66.1589 386.92957,-158.5439 17.2026,-14.6984 54.8752,-52.1864 69.793,-69.4511 95.1665,-110.13743 150.9001,-244.23213 162.0424,-389.87264 0.6512,-8.51204 1.201,118.35722 1.31,302.33334 l 0.188,317 -317.6667,-0.1905 c -176.62095,-0.1058 -310.97532,-0.672 -302.59627,-1.2752 z m -73.07037,-157.9777 c -2.56667,-0.2995 -10.36667,-1.1935 -17.33333,-1.9868 -31.31803,-3.5661 -64.75755,-12.023 -92.56193,-23.4089 -81.8308,-33.51 -143.96724,-89.1723 -195.92338,-175.50976 -12.22656,-20.31734 -30.5944,-58.5094 -51.11374,-106.28025 -3.29855,-7.67934 -6.83817,-15.16284 -7.86582,-16.63001 -2.6422,-3.77227 -2.32235,-6.48264 1.01064,-8.56413 1.5835,-0.98891 13.1335,-10.31241 25.66667,-20.71889 28.01701,-23.26294 79.3911,-64.20812 91.30662,-72.77142 10.25689,-7.3713 15.41873,-9.35312 24.36111,-9.35312 10.05043,0 16.55884,3.96059 31.34468,19.07429 9.11294,9.31503 16.10111,15.15194 21.91111,18.3014 8.26954,4.48273 8.97974,4.62395 23.19738,4.61273 13.20808,-0.0104 15.52856,-0.39043 23.33333,-3.82107 44.30925,-19.47645 92.39793,-80.55115 107.73966,-136.83401 7.76495,-28.48657 9.4273,-45.93758 10.98646,-115.33333 1.71243,-76.21772 3.90834,-91.52898 14.92129,-104.04035 9.52997,-10.82662 20.5366,-10.95385 29.61963,-0.34237 10.28641,12.01736 12.364,26.64234 14.73371,103.71606 2.06009,67.00367 3.76305,85.55026 10.14193,110.4539 12.54909,48.99261 40.54291,93.18577 78.00336,123.14204 20.40447,16.31699 37.59066,23.73738 54.97758,23.73738 17.83019,0 26.84389,-4.84221 45.54303,-24.46592 13.0703,-13.71657 20.79107,-18.16736 31.55016,-18.18772 12.94691,-0.0245 24.43644,8.02377 92.60769,64.87059 37.3795,31.17011 46.5313,38.4572 49.57,39.4701 0.9893,0.32978 -1.3973,6.78591 -6.5613,17.74896 -4.464,9.47686 -13.1272,28.33065 -19.2517,41.89731 -35.12033,77.797 -60.69805,117.16359 -104.43346,160.73339 -23.79283,23.7027 -36.95168,34.7141 -58.81473,49.2164 -61.35255,40.6967 -123.1786,60.0408 -195.99998,61.3245 -15.4,0.2714 -30.1,0.2485 -32.66667,-0.051 z m 55.33333,-99.2139 c 11.10411,-1.8162 23.43942,-8.206 29.80759,-15.4406 6.28137,-7.136 11.5175,-19.5297 13.56519,-32.1083 6.09943,-37.46768 6.09867,-37.46616 22.93884,-45.86938 14.98541,-7.47769 24.1772,-13.82869 35.35105,-24.42552 27.57553,-26.15153 42.42052,-58.13815 45.49992,-98.03907 1.40932,-18.26098 0.24302,-30.46781 -3.14795,-32.94735 -6.31283,-4.61605 -10.83609,-0.42967 -14.26174,13.19958 -3.97172,15.80183 -9.69888,25.60387 -22.39953,38.33685 -18.68457,18.73212 -40.49789,27.97644 -65.89999,27.92792 -20.49526,-0.0391 -35.58477,-4.35198 -55.81864,-15.95388 -6.41676,-3.6793 -13.20493,-6.68964 -15.08482,-6.68964 -1.87989,0 -7.43937,2.34862 -12.35439,5.21914 -11.51499,6.72512 -22.53443,11.57332 -32.73019,14.40024 -11.71681,3.24866 -41.26593,3.19131 -52.132,-0.10118 -29.90556,-9.06156 -55.17771,-34.4281 -62.64996,-62.88393 -3.84541,-14.6441 -9.57133,-18.96752 -15.40837,-11.63426 -2.75868,3.4658 -2.88001,4.61617 -2.21484,20.99999 1.39397,34.33483 10.25281,60.77612 28.6023,85.37032 13.55931,18.17382 29.21198,31.44841 50.98319,43.23742 19.92576,10.78971 19.94225,10.81562 23.36627,36.72555 3.62376,27.4214 7.37661,36.698 19.39338,47.9383 12.05547,11.2765 21.68765,13.7976 53.26136,13.9406 12.83333,0.058 26.93333,-0.4831 31.33333,-1.2028 z M 683.16115,854.01271 c 23.45378,-4.96904 46.06768,-22.85431 56.58677,-44.75433 8.41777,-17.52521 11.21605,-27.15772 11.4047,-39.25843 0.21652,-13.88859 -2.62646,-21.46986 -10.72414,-28.59773 -3.31995,-2.92234 -9.42453,-6.59057 -13.56573,-8.15162 -7.26368,-2.7381 -9.44551,-2.83181 -61.81042,-2.65482 -63.08074,0.21321 -64.1403,0.36512 -74.44919,10.67402 -12.9795,12.9795 -13.82921,32.22449 -2.61241,59.16845 8.33743,20.02739 22.15849,35.66688 40.00923,45.2732 18.34632,9.87302 35.5339,12.4596 55.16119,8.30126 z M 0.18552758,316.99998 0,0 317.66665,0.19041178 C 494.2876,0.29627972 628.64197,0.86248547 620.26292,1.4656346 477.19518,11.764082 341.86652,67.387002 232.48562,160.85024 209.24138,180.71186 167.04847,224.31033 147.983,248.16786 61.208474,356.753 12.436475,480.53182 1.4717127,619.99996 0.85110293,627.89391 0.29013798,495.74158 0.18552758,316.99998 Z M 1331.4981,618.47065 c -2.8897,-47.57824 -14.2213,-106.20625 -30.2428,-156.47068 -18.5026,-58.04869 -52.024,-125.61678 -87.2554,-175.87824 -29.6106,-42.24281 -75.7033,-93.27225 -113.1523,-125.27149 C 1023.063,94.38525 931.86526,46.700341 833.99995,21.322627 796.9998,11.72802 751.22996,4.2124794 713.07033,1.4656346 704.69128,0.86248547 839.04565,0.29627972 1015.6666,0.19041178 L 1333.3333,0 v 316.66665 c 0,174.16665 -0.2098,316.66664 -0.4663,316.66664 -0.2564,0 -0.8724,-6.68818 -1.3689,-14.86264 z"
         id="path18" />
      <path
         style="fill:#faa503"
         d="m 651.92706,1054.1421 c -9.80089,-3.7682 -15.55102,-7.4359 -21.10649,-13.4629 -12.26772,-13.3089 -16.45071,-30.057 -16.32077,-65.34593 0.0976,-26.52058 1.77305,-46.449 4.14533,-49.30742 1.32132,-1.59209 4.8855,-2.02591 16.64477,-2.02591 19.40966,0 19.03443,-0.38998 20.49717,21.30314 1.20206,17.82712 2.25203,20.03019 9.54622,20.03019 7.9731,0 10.27269,-6.12837 10.55416,-28.12668 0.16105,-12.58697 1.11766,-13.20665 20.38757,-13.20665 11.40309,0 15.79132,0.47343 16.91272,1.82463 3.70617,4.46566 5.57994,61.00286 2.70647,81.66233 -2.94407,21.1671 -12.40923,36.078 -27.89425,43.9433 -6.11271,3.1048 -9.33072,3.7921 -19.33333,4.1295 -7.85719,0.2649 -13.63627,-0.2245 -16.73957,-1.4176 z M 273.33332,841.81301 c 0,-0.46948 1.4608,-5.41948 3.24622,-11 1.78542,-5.58051 6.3271,-21.18655 10.09262,-34.68007 9.57858,-34.32424 34.64797,-108.56065 53.41433,-158.17244 l 3.04104,-8.03947 -5.76443,-9.87006 c -12.01374,-20.57038 -28.14538,-57.77781 -39.30766,-90.66267 -18.72181,-55.15576 -27.3692,-111.17811 -27.38099,-177.38832 -0.006,-33.60988 1.07249,-49.54147 5.4155,-80 10.07657,-70.66934 28.10537,-109.33332 50.98151,-109.33332 26.2909,0 82.65514,47.38758 145.11053,121.99999 18.45857,22.05155 45.63868,60.11309 68.31649,95.66666 4.09286,6.41667 8.20505,11.65921 9.13819,11.6501 0.93315,-0.009 7.0635,-1.50115 13.62301,-3.31566 54.48807,-15.07257 151.48328,-14.67063 209.16858,0.86677 5.8863,1.58546 10.88418,2.29852 11.47498,1.63715 0.57567,-0.64443 7.98606,-11.67169 16.46752,-24.50503 47.87918,-72.44614 97.90962,-131.33929 145.62918,-171.42685 20.51966,-17.23786 42.70833,-30.1829 54.85866,-32.00495 26.3013,-3.94413 45.4448,35.90157 56.5996,117.80809 3.499,25.69232 4.8568,83.4492 2.6394,112.27121 -4.9946,64.91963 -17.7709,119.39872 -41.4419,176.71212 -8.699,21.06266 -17.6045,39.53351 -24.89916,51.64337 l -4.61999,7.66966 6.00893,16.33034 c 11.81052,32.09722 18.11692,50.04801 26.81272,76.32064 7.8301,23.6573 12.3523,38.48777 30.8461,101.15878 2.5669,8.69867 4.486,16.69542 4.2647,17.77055 -0.5561,2.70168 -4.1546,-0.0476 -48.9112,-37.36936 -68.17125,-56.84682 -79.66078,-64.89509 -92.60769,-64.87059 -10.75909,0.0204 -18.47986,4.47115 -31.55016,18.18772 -18.69914,19.62371 -27.71284,24.46592 -45.54303,24.46592 -17.38692,0 -34.57311,-7.42039 -54.97758,-23.73738 -37.46045,-29.95627 -65.45427,-74.14943 -78.00336,-123.14204 -6.37888,-24.90364 -8.08184,-43.45023 -10.14193,-110.4539 -2.37297,-77.17975 -4.44108,-91.69143 -14.79038,-103.78227 -9.04628,-10.56854 -20.05593,-10.39198 -29.62145,0.47503 -10.94839,12.43803 -13.15266,27.85818 -14.8628,103.9739 -1.55916,69.39575 -3.22151,86.84676 -10.98646,115.33333 -15.34173,56.28286 -63.43041,117.35756 -107.73966,136.83401 -7.80477,3.43064 -10.12525,3.81064 -23.33333,3.82107 -14.21764,0.0112 -14.92784,-0.13 -23.19738,-4.61273 -5.81,-3.14946 -12.79817,-8.98637 -21.91111,-18.3014 -14.78584,-15.1137 -21.29425,-19.07429 -31.34468,-19.07429 -8.95002,0 -14.10477,1.98214 -24.40278,9.38353 -11.18828,8.04123 -66.89465,52.47876 -95.78905,76.41189 -20.52566,17.00132 -24.02165,19.5265 -24.02165,17.35097 z M 554.66663,695.13883 c 9.48953,-3.94633 18.45166,-15.95827 20.56148,-27.55852 1.37256,-7.5467 -1.44055,-18.76559 -6.33762,-25.27489 -15.37043,-20.43072 -48.9233,-15.75294 -59.27787,8.26424 -3.35245,7.77593 -2.71905,20.86818 1.39738,28.88366 5.35939,10.43576 11.8283,15.31721 24.3233,18.3544 3.90846,0.95003 13.97155,-0.43914 19.33333,-2.66889 z m 250.3022,-0.64466 c 10.95536,-5.25255 18.22639,-17.80373 18.05183,-31.16088 -0.50817,-38.88503 -55.68127,-47.28356 -66.55332,-10.13084 -2.60131,8.8894 -1.6973,16.88726 2.99525,26.49929 8.03448,16.45748 28.29615,23.04381 45.50624,14.79243 z M 372.91125,526.3333 c 1.49019,-1.65 4.44477,-6.26266 6.56575,-10.25036 9.51455,-17.88858 36.40411,-40.15838 60.5971,-50.18623 15.49256,-6.42158 16.63771,-8.52836 15.48588,-28.49026 -1.94739,-33.74936 -20.55092,-90.87567 -42.37379,-130.11821 -21.92159,-39.42008 -56.93638,-81.91829 -67.51954,-81.94994 -2.99261,-0.009 -1.76976,3.59139 4.37164,12.87109 9.09573,13.74371 27.86165,52.56322 33.34771,68.98367 9.58391,28.68583 12.46484,59.60484 7.37846,79.18802 -2.92952,11.27902 -2.155,16.13021 4.04799,25.35447 10.17682,15.13358 10.27582,18.13052 0.85419,25.85712 -28.02989,22.98707 -38.42238,41.00374 -38.2748,66.3541 0.1135,19.49725 7.93682,30.78228 15.51941,22.38653 z m 594.76746,0 c 4.30753,-4.59835 5.65637,-9.5662 5.63486,-20.75346 -0.0254,-13.21431 -2.87643,-25.08926 -8.67107,-36.11647 -5.43784,-10.34824 -12.15077,-17.59716 -26.21583,-28.30903 -5.63196,-4.28927 -10.61723,-8.98745 -11.07838,-10.44038 -0.93315,-2.94012 2.22207,-10.13537 9.34985,-21.32167 5.50004,-8.63172 5.7716,-12.64206 1.863,-27.51236 -3.29021,-12.51765 -2.86227,-26.05641 1.50543,-47.62724 5.7655,-28.4742 20.55582,-63.72952 39.18772,-93.41082 5.46209,-8.70131 8.56237,-14.89183 7.82651,-15.62769 -1.72138,-1.72138 -11.80981,4.97508 -20.32793,13.49319 -14.23952,14.23952 -34.06342,41.60464 -47.79757,65.98027 -22.82313,40.50694 -44.25958,108.2802 -44.27486,139.979 -0.004,8.9643 3.22631,15.91203 8.31644,17.88513 24.65268,9.55621 40.07173,19.30923 54.54154,34.4992 5.38717,5.65528 11.8202,14.10767 14.29561,18.78309 7.26983,13.73081 10.69277,15.99897 15.84468,10.49924 z"
         id="path17" />
      <path
         style="fill:#0966d7"
         d="m 620.26292,1331.8676 c -128.69577,-9.2639 -251.41701,-55.2077 -354.44396,-132.695 -27.16991,-20.4347 -46.89335,-37.9302 -75.19338,-66.6996 C 152.55553,1093.7714 121.8745,1054.3183 94.900934,1009.3794 -4.8343761,843.21694 -27.096239,641.43548 33.922011,456.66664 53.17686,398.36119 84.502534,335.8117 119.33333,286.12173 148.94394,243.87892 195.03662,192.84948 232.48562,160.85024 387.95572,28.004932 593.23511,-26.420895 793.33328,12.152421 906.40372,33.949228 1012.21,85.1116 1100.8476,160.85024 c 37.449,31.99924 83.5417,83.02868 113.1523,125.27149 35.2314,50.26146 68.7528,117.82955 87.2554,175.87824 21.0885,66.16143 32.0832,136.29491 32.0747,204.59985 -0.02,160.77498 -57.5573,314.62096 -163.5371,437.27278 -14.9178,17.2647 -52.5904,54.7527 -69.793,69.4511 -98.6265,84.2696 -221.37926,138.592 -349.33328,154.5921 -42.37782,5.2992 -91.15231,6.7773 -130.4037,3.9518 z m 97.73704,-161.05 c 56.45058,-8.5644 102.86767,-26.4949 150.66665,-58.2012 21.86305,-14.5023 35.0219,-25.5137 58.81473,-49.2164 45.01112,-44.8407 68.82432,-81.97769 107.76856,-168.06672 7.9618,-17.6 16.492,-36.04379 18.9561,-40.98621 5.2638,-10.55784 5.8641,-6.1551 -6.7742,-49.68045 -17.5749,-60.52628 -30.3723,-99.44183 -52.28632,-158.99699 l -6.00893,-16.33034 4.61999,-7.66966 c 17.24966,-28.6363 38.07286,-80.72113 48.89636,-122.30426 14.1872,-54.50618 19.5586,-102.37764 18.2555,-162.69872 -1.9655,-90.98433 -21.8962,-162.0094 -48.2911,-172.08967 -7.7983,-2.97821 -14.89502,-1.8005 -28.34546,4.70398 -30.34228,14.67318 -76.83171,57.509 -121.95132,112.36714 -16.34595,19.87402 -43.7666,57.50555 -61.94976,85.01854 -8.48146,12.83334 -15.89185,23.8606 -16.46752,24.50503 -0.5908,0.66137 -5.58868,-0.0517 -11.47498,-1.63715 -57.6853,-15.5374 -154.68051,-15.93934 -209.16858,-0.86677 -6.55951,1.81451 -12.68986,3.30655 -13.62301,3.31566 -0.93314,0.009 -5.04533,-5.23343 -9.13819,-11.6501 C 517.82067,344.77974 490.64056,306.7182 472.18199,284.66665 409.7266,210.05424 353.36236,162.66666 327.07146,162.66666 c -22.87614,0 -40.90494,38.66398 -50.98151,109.33332 -4.34301,30.45853 -5.42148,46.39012 -5.4155,80 0.0118,66.21021 8.65918,122.23256 27.38099,177.38832 11.16228,32.88486 27.29392,70.09229 39.30766,90.66267 l 5.76443,9.87006 -3.04104,8.03947 c -18.76636,49.61179 -43.83575,123.8482 -53.41433,158.17244 -3.76552,13.49352 -8.3072,29.09956 -10.09262,34.68007 -3.72458,11.64156 -4.00166,15.51505 -1.37778,19.26117 1.02765,1.46717 4.56727,8.95067 7.86582,16.63001 20.51934,47.77085 38.88718,85.96291 51.11374,106.28025 45.30038,75.27736 98.65204,127.48956 164.47025,160.95756 41.28174,20.9914 80.55205,33.0121 124.01506,37.9611 6.96666,0.7933 14.76666,1.6873 17.33333,1.9868 11.89748,1.3882 61.46958,-0.5644 78,-3.0723 z m -84,-96.7164 c -10.73111,-2.6914 -16.18323,-5.5422 -23.26136,-12.163 -12.01677,-11.2403 -15.76962,-20.5169 -19.39338,-47.9383 -3.42402,-25.90993 -3.44051,-25.93584 -23.36627,-36.72555 -21.77121,-11.78901 -37.42388,-25.0636 -50.98319,-43.23742 -18.34949,-24.5942 -27.20833,-51.03549 -28.6023,-85.37032 -0.66517,-16.38382 -0.54384,-17.53419 2.21484,-20.99999 5.83704,-7.33326 11.56296,-3.00984 15.40837,11.63426 7.47225,28.45583 32.7444,53.82237 62.64996,62.88393 10.86607,3.29249 40.41519,3.34984 52.132,0.10118 10.19576,-2.82692 21.2152,-7.67512 32.73019,-14.40024 4.91502,-2.87052 10.4745,-5.21914 12.35439,-5.21914 1.87989,0 8.66806,3.01034 15.08482,6.68964 20.23387,11.6019 35.32338,15.91473 55.81864,15.95388 25.4021,0.0485 47.21542,-9.1958 65.89999,-27.92792 12.70065,-12.73298 18.42781,-22.53502 22.39953,-38.33685 3.42565,-13.62925 7.94891,-17.81563 14.26174,-13.19958 3.39097,2.47954 4.55727,14.68637 3.14795,32.94735 -3.0794,39.90092 -17.92439,71.88754 -45.49992,98.03907 -11.17385,10.59683 -20.36564,16.94783 -35.35105,24.42552 -16.84017,8.40322 -16.83941,8.4017 -22.93884,45.86938 -2.04769,12.5786 -7.28382,24.9723 -13.56519,32.1083 -6.36817,7.2346 -18.70348,13.6244 -29.80759,15.4406 -11.34728,1.856 -53.20536,1.4636 -61.33333,-0.5748 z m 54,-22.671 c 15.48502,-7.8653 24.95018,-22.7762 27.89425,-43.9433 2.87347,-20.65947 0.9997,-77.19667 -2.70647,-81.66233 -1.1214,-1.3512 -5.50963,-1.82463 -16.91272,-1.82463 -19.26991,0 -20.22652,0.61968 -20.38757,13.20665 -0.28147,21.99831 -2.58106,28.12668 -10.55416,28.12668 -7.29419,0 -8.34416,-2.20307 -9.54622,-20.03019 -1.46274,-21.69312 -1.08751,-21.30314 -20.49717,-21.30314 -11.75927,0 -15.32345,0.43382 -16.64477,2.02591 -4.16976,5.02425 -5.73991,63.73459 -2.21809,82.93765 5.70009,31.0802 24.15698,47.5432 52.23959,46.5962 10.00261,-0.3374 13.22062,-1.0247 19.33333,-4.1295 z M 653.33329,855.07881 c -12.61471,-2.11165 -29.93936,-10.57368 -41.09418,-20.07197 -13.73586,-11.69605 -26.07163,-33.46081 -30.31701,-53.49017 -3.90806,-18.43794 -1.37248,-30.19336 8.68104,-40.24687 10.30889,-10.3089 11.36845,-10.46081 74.44919,-10.67402 52.36491,-0.17699 54.54674,-0.0833 61.81042,2.65482 4.1412,1.56105 10.24578,5.22928 13.56573,8.15162 8.09768,7.12787 10.94066,14.70914 10.72414,28.59773 -0.18865,12.10071 -2.98693,21.73322 -11.4047,39.25843 -10.51909,21.90002 -33.13299,39.78529 -56.58677,44.75433 -8.62113,1.82651 -22.35322,2.31732 -29.82786,1.0661 z M 535.3333,697.80772 c -12.495,-3.03719 -18.96391,-7.91864 -24.3233,-18.3544 -4.11643,-8.01548 -4.74983,-21.10773 -1.39738,-28.88366 10.35457,-24.01718 43.90744,-28.69496 59.27787,-8.26424 4.89707,6.5093 7.71018,17.72819 6.33762,25.27489 -2.10982,11.60025 -11.07195,23.61219 -20.56148,27.55852 -5.36178,2.22975 -15.42487,3.61892 -19.33333,2.66889 z m 243.63545,-1.49063 c -9.45586,-3.11618 -15.37904,-8.16154 -19.50616,-16.61535 -4.69255,-9.61203 -5.59656,-17.60989 -2.99525,-26.49929 8.8746,-30.3269 51.73105,-32.20535 64.32687,-2.81952 1.16705,2.7227 2.16895,8.55036 2.22645,12.95036 0.31273,23.92957 -21.64277,40.36871 -44.05191,32.9838 z M 363.41319,526.7549 c -3.8687,-4.27487 -5.95957,-12.19481 -6.02135,-22.80813 -0.14758,-25.35036 10.24491,-43.36703 38.2748,-66.3541 9.42163,-7.7266 9.32263,-10.72354 -0.85419,-25.85712 -6.20299,-9.22426 -6.97751,-14.07545 -4.04799,-25.35447 5.08638,-19.58318 2.20545,-50.50219 -7.37846,-79.18802 -5.48606,-16.42045 -24.25198,-55.23996 -33.34771,-68.98367 -6.1414,-9.2797 -7.36425,-12.88004 -4.37164,-12.87109 10.58316,0.0316 45.59795,42.52986 67.51954,81.94994 21.82287,39.24254 40.4264,96.36885 42.37379,130.11821 1.15183,19.9619 0.007,22.06868 -15.48588,28.49026 -24.19299,10.02785 -51.08255,32.29765 -60.5971,50.18623 -6.91756,13.00589 -11.31049,15.92432 -16.06381,10.67196 z m 595.42084,0.0792 c -1.37458,-1.37458 -4.52458,-6.32458 -7,-11 -2.47541,-4.67542 -8.90844,-13.12781 -14.29561,-18.78309 -14.46981,-15.18997 -29.88886,-24.94299 -54.54154,-34.4992 -5.09013,-1.9731 -8.32076,-8.92083 -8.31644,-17.88513 0.0153,-31.6988 21.45173,-99.47206 44.27486,-139.979 13.73415,-24.37563 33.55805,-51.74075 47.79757,-65.98027 8.51812,-8.51811 18.60655,-15.21457 20.32793,-13.49319 0.73586,0.73586 -2.36442,6.92638 -7.82651,15.62769 -18.6319,29.6813 -33.42222,64.93662 -39.18772,93.41082 -4.3677,21.57083 -4.79564,35.10959 -1.50543,47.62724 3.9086,14.8703 3.63704,18.88064 -1.863,27.51236 -7.12778,11.1863 -10.283,18.38155 -9.34985,21.32167 0.46115,1.45293 5.44642,6.15111 11.07838,10.44038 14.06506,10.71187 20.77799,17.96079 26.21583,28.30903 5.79464,11.02721 8.64565,22.90216 8.67107,36.11647 0.0215,11.18726 -1.32733,16.15511 -5.63486,20.75346 -3.42326,3.65437 -5.56955,3.77589 -8.84468,0.50076 z"
         id="path16" />
    </g>
  </g>
</svg>